<svg width="140" height="50" viewBox="0 0 140 50" fill="none" xmlns="http://www.w3.org/2000/svg">
<path d="M2.58 29V8H6.33L12.69 27.86H13.05L19.41 8H23.16V29H21.3V9.14H20.94L14.58 29H11.16L4.8 9.14H4.44V29H2.58ZM46.2642 29V27.26H49.2642V9.74H46.2642V8H56.6742C57.8742 8 58.9442 8.22 59.8842 8.66C60.8242 9.1 61.5542 9.72 62.0742 10.52C62.6142 11.3 62.8842 12.21 62.8842 13.25V13.49C62.8842 14.47 62.6942 15.28 62.3142 15.92C61.9342 16.56 61.4742 17.06 60.9342 17.42C60.3942 17.78 59.8642 18.04 59.3442 18.2V18.56C59.8642 18.68 60.3942 18.93 60.9342 19.31C61.4942 19.67 61.9542 20.17 62.3142 20.81C62.6942 21.45 62.8842 22.26 62.8842 23.24V23.54C62.8842 24.68 62.6042 25.66 62.0442 26.48C61.5042 27.3 60.7542 27.93 59.7942 28.37C58.8542 28.79 57.7842 29 56.5842 29H46.2642ZM51.1842 27.26H56.4042C57.9042 27.26 59.0342 26.91 59.7942 26.21C60.5742 25.51 60.9642 24.57 60.9642 23.39V23.15C60.9642 21.97 60.5742 21.03 59.7942 20.33C59.0342 19.63 57.9042 19.28 56.4042 19.28H51.1842V27.26ZM51.1842 17.54H56.5242C57.9042 17.54 58.9842 17.2 59.7642 16.52C60.5642 15.82 60.9642 14.91 60.9642 13.79V13.49C60.9642 12.37 60.5642 11.47 59.7642 10.79C58.9842 10.09 57.9042 9.74 56.5242 9.74H51.1842V17.54Z" fill="#B5ABA1"/>
<path d="M27.192 29V27.26H30.192V9.74H27.192V8H35.172C37.912 8 40.042 8.7 41.562 10.1C43.102 11.48 43.872 13.64 43.872 16.58V20.45C43.872 23.39 43.102 25.55 41.562 26.93C40.042 28.31 37.912 29 35.172 29H27.192ZM32.112 27.26H35.172C37.372 27.26 39.052 26.73 40.212 25.67C41.372 24.61 41.952 22.9 41.952 20.54V16.49C41.952 14.11 41.372 12.4 40.212 11.36C39.052 10.3 37.372 9.77 35.172 9.77H32.112V27.26Z" fill="#312D2B"/>
<path d="M0.98 48V40.92H1.86L4.47 47.05L7.06 40.92H7.94V48H7.37V41.65H7.35L4.62 48H4.3L1.57 41.65H1.55V48H0.98ZM15.826 41.79C16.526 42.49 16.876 43.38 16.876 44.46C16.876 45.54 16.526 46.4333 15.826 47.14C15.1327 47.84 14.256 48.19 13.196 48.19C12.1427 48.19 11.266 47.84 10.566 47.14C9.87268 46.4333 9.52602 45.54 9.52602 44.46C9.52602 43.38 9.87268 42.49 10.566 41.79C11.266 41.0833 12.1427 40.73 13.196 40.73C14.256 40.73 15.1327 41.0833 15.826 41.79ZM15.426 46.75C15.9927 46.1233 16.276 45.36 16.276 44.46C16.276 43.56 15.9893 42.8 15.416 42.18C14.8493 41.5533 14.1093 41.24 13.196 41.24C12.2827 41.24 11.5427 41.5533 10.976 42.18C10.4093 42.8 10.126 43.56 10.126 44.46C10.126 45.36 10.4093 46.1233 10.976 46.75C11.5427 47.37 12.2827 47.68 13.196 47.68C14.116 47.68 14.8593 47.37 15.426 46.75ZM18.4702 48V40.92H20.5202C20.8136 40.92 21.0836 40.95 21.3302 41.01C21.5836 41.0633 21.8236 41.1533 22.0502 41.28C22.2769 41.4067 22.4536 41.59 22.5802 41.83C22.7136 42.07 22.7802 42.3567 22.7802 42.69C22.7802 43.09 22.6569 43.43 22.4102 43.71C22.1702 43.9833 21.8569 44.1633 21.4702 44.25V44.27C21.9302 44.3167 22.3202 44.4967 22.6402 44.81C22.9602 45.1233 23.1202 45.54 23.1202 46.06C23.1202 46.68 22.8836 47.16 22.4102 47.5C21.9436 47.8333 21.3369 48 20.5902 48H18.4702ZM19.0402 41.41V44.06H20.5602C21.0069 44.06 21.3902 43.9533 21.7102 43.74C22.0369 43.52 22.2002 43.1833 22.2002 42.73C22.2002 42.2767 22.0336 41.9433 21.7002 41.73C21.3669 41.5167 20.9369 41.41 20.4102 41.41H19.0402ZM19.0402 44.54V47.51H20.5302C21.1236 47.51 21.6069 47.39 21.9802 47.15C22.3536 46.91 22.5402 46.54 22.5402 46.04C22.5402 45.54 22.3669 45.1667 22.0202 44.92C21.6736 44.6667 21.2169 44.54 20.6502 44.54H19.0402ZM25.3293 40.92V48H24.7593V40.92H25.3293ZM27.8488 40.92V47.49H31.2088V48H27.2788V40.92H27.8488ZM32.8974 44.57V47.49H36.7774V48H32.3374V40.92H36.6474V41.43H32.8974V44.07H36.4074V44.57H32.8974ZM40.7456 48V40.92H42.9856C43.4723 40.92 43.9356 40.9933 44.3756 41.14C44.8223 41.2867 45.2256 41.5033 45.5856 41.79C45.9456 42.07 46.2323 42.4433 46.4456 42.91C46.659 43.37 46.7656 43.8867 46.7656 44.46C46.7656 45.0333 46.659 45.5533 46.4456 46.02C46.2323 46.48 45.9456 46.8533 45.5856 47.14C45.2256 47.42 44.8223 47.6333 44.3756 47.78C43.9356 47.9267 43.4723 48 42.9856 48H40.7456ZM41.3156 41.43V47.49H42.8356C43.869 47.49 44.6823 47.2067 45.2756 46.64C45.869 46.0733 46.1656 45.3467 46.1656 44.46C46.1656 43.5733 45.869 42.8467 45.2756 42.28C44.6823 41.7133 43.869 41.43 42.8356 41.43H41.3156ZM48.153 40.92L49.993 47.25H50.013L51.853 40.92H52.563L54.413 47.25H54.443L56.263 40.92H56.863L54.763 48H54.073L52.213 41.68H52.193L50.343 48H49.653L47.553 40.92H48.153ZM58.581 44.57V47.49H62.461V48H58.021V40.92H62.331V41.43H58.581V44.07H62.091V44.57H58.581ZM64.4992 40.92V47.49H67.8592V48H63.9292V40.92H64.4992ZM69.5578 40.92V47.49H72.9178V48H68.9878V40.92H69.5578ZM74.6164 40.92V48H74.0464V40.92H74.6164ZM77.2859 40.92L81.6959 47.18H81.7159V40.92H82.2859V48H81.5659L77.1559 41.7H77.1359V48H76.5659V40.92H77.2859ZM90.0317 41.65L89.6717 42.04C89.1384 41.5067 88.4351 41.24 87.5617 41.24C86.6351 41.24 85.8884 41.55 85.3217 42.17C84.7551 42.79 84.4717 43.55 84.4717 44.45C84.4717 45.35 84.7551 46.1133 85.3217 46.74C85.8884 47.3667 86.6417 47.68 87.5817 47.68C88.3951 47.68 89.0717 47.52 89.6117 47.2V44.86H87.9117V44.36H90.1817V47.52C89.4351 47.9667 88.5651 48.19 87.5717 48.19C86.4917 48.19 85.6051 47.8367 84.9117 47.13C84.2184 46.4233 83.8717 45.53 83.8717 44.45C83.8717 43.3767 84.2184 42.49 84.9117 41.79C85.6117 41.0833 86.4951 40.73 87.5617 40.73C88.5817 40.73 89.4051 41.0367 90.0317 41.65ZM94.5835 48V40.92H96.6335C96.9268 40.92 97.1968 40.95 97.4435 41.01C97.6968 41.0633 97.9368 41.1533 98.1635 41.28C98.3902 41.4067 98.5668 41.59 98.6935 41.83C98.8268 42.07 98.8935 42.3567 98.8935 42.69C98.8935 43.09 98.7702 43.43 98.5235 43.71C98.2835 43.9833 97.9702 44.1633 97.5835 44.25V44.27C98.0435 44.3167 98.4335 44.4967 98.7535 44.81C99.0735 45.1233 99.2335 45.54 99.2335 46.06C99.2335 46.68 98.9968 47.16 98.5235 47.5C98.0568 47.8333 97.4502 48 96.7035 48H94.5835ZM95.1535 41.41V44.06H96.6735C97.1202 44.06 97.5035 43.9533 97.8235 43.74C98.1502 43.52 98.3135 43.1833 98.3135 42.73C98.3135 42.2767 98.1468 41.9433 97.8135 41.73C97.4802 41.5167 97.0502 41.41 96.5235 41.41H95.1535ZM95.1535 44.54V47.51H96.6435C97.2368 47.51 97.7202 47.39 98.0935 47.15C98.4668 46.91 98.6535 46.54 98.6535 46.04C98.6535 45.54 98.4802 45.1667 98.1335 44.92C97.7868 44.6667 97.3302 44.54 96.7635 44.54H95.1535ZM103.473 48.19C102.979 48.19 102.549 48.1067 102.183 47.94C101.823 47.7667 101.546 47.5367 101.353 47.25C101.166 46.9633 101.029 46.6633 100.943 46.35C100.856 46.0367 100.813 45.7033 100.813 45.35V40.92H101.383V45.28C101.383 45.52 101.399 45.75 101.433 45.97C101.473 46.1833 101.543 46.3967 101.643 46.61C101.743 46.8233 101.869 47.0067 102.023 47.16C102.176 47.3133 102.376 47.44 102.623 47.54C102.869 47.6333 103.153 47.68 103.473 47.68C103.866 47.68 104.203 47.61 104.483 47.47C104.769 47.33 104.989 47.1433 105.143 46.91C105.296 46.67 105.406 46.4167 105.473 46.15C105.539 45.8767 105.573 45.5867 105.573 45.28V40.92H106.143V45.35C106.143 45.7033 106.099 46.0367 106.013 46.35C105.926 46.6633 105.786 46.9633 105.593 47.25C105.406 47.5367 105.129 47.7667 104.763 47.94C104.403 48.1067 103.973 48.19 103.473 48.19ZM108.611 40.92V48H108.041V40.92H108.611ZM111.13 40.92V47.49H114.49V48H110.56V40.92H111.13ZM115.619 48V40.92H117.859C118.345 40.92 118.809 40.9933 119.249 41.14C119.695 41.2867 120.099 41.5033 120.459 41.79C120.819 42.07 121.105 42.4433 121.319 42.91C121.532 43.37 121.639 43.8867 121.639 44.46C121.639 45.0333 121.532 45.5533 121.319 46.02C121.105 46.48 120.819 46.8533 120.459 47.14C120.099 47.42 119.695 47.6333 119.249 47.78C118.809 47.9267 118.345 48 117.859 48H115.619ZM116.189 41.43V47.49H117.709C118.742 47.49 119.555 47.2067 120.149 46.64C120.742 46.0733 121.039 45.3467 121.039 44.46C121.039 43.5733 120.742 42.8467 120.149 42.28C119.555 41.7133 118.742 41.43 117.709 41.43H116.189ZM123.786 44.57V47.49H127.666V48H123.226V40.92H127.536V41.43H123.786V44.07H127.296V44.57H123.786ZM129.704 44.61V48H129.134V40.92H131.174C132.748 40.92 133.534 41.5367 133.534 42.77C133.534 43.3033 133.354 43.7267 132.994 44.04C132.634 44.3533 132.188 44.53 131.654 44.57L133.744 48H133.054L131.034 44.61H129.704ZM129.704 41.41V44.12H131.094C131.694 44.12 132.154 44.0067 132.474 43.78C132.801 43.5467 132.964 43.21 132.964 42.77C132.964 41.8633 132.338 41.41 131.084 41.41H129.704ZM139.041 41.57L138.631 41.94C138.238 41.46 137.718 41.22 137.071 41.22C136.644 41.22 136.264 41.3467 135.931 41.6C135.598 41.8467 135.431 42.1967 135.431 42.65C135.431 42.93 135.498 43.1667 135.631 43.36C135.771 43.5533 135.951 43.7033 136.171 43.81C136.391 43.9167 136.631 44.0133 136.891 44.1C137.158 44.1867 137.421 44.28 137.681 44.38C137.948 44.48 138.191 44.6 138.411 44.74C138.631 44.8733 138.808 45.0633 138.941 45.31C139.081 45.5567 139.151 45.85 139.151 46.19C139.151 46.83 138.928 47.3233 138.481 47.67C138.034 48.0167 137.504 48.19 136.891 48.19C135.984 48.19 135.271 47.85 134.751 47.17L135.151 46.82C135.644 47.4 136.224 47.69 136.891 47.69C137.338 47.69 137.728 47.56 138.061 47.3C138.401 47.0333 138.571 46.6733 138.571 46.22C138.571 45.94 138.501 45.7033 138.361 45.51C138.228 45.31 138.051 45.1533 137.831 45.04C137.618 44.9267 137.378 44.8267 137.111 44.74C136.851 44.6467 136.588 44.55 136.321 44.45C136.054 44.35 135.811 44.2333 135.591 44.1C135.378 43.96 135.201 43.77 135.061 43.53C134.928 43.2833 134.861 42.99 134.861 42.65C134.861 42.0367 135.084 41.5633 135.531 41.23C135.978 40.8967 136.501 40.73 137.101 40.73C137.968 40.73 138.614 41.01 139.041 41.57Z" fill="#312D2B"/>
</svg>
